HIERARCHY
ROOT Hips
{
	OFFSET 0.00000 0.00000 0.00000
	CHANNELS 6 Xposition Yposition Zposition Yrotation Zrotation Xrotation 
	JOINT Lumbar
	{
		OFFSET 0 0 0
		CHANNELS 3 Zrotation Xrotation Yrotation
		JOINT Neck
		{
			OFFSET 0.00 0.2701 0.00
			CHANNELS 3 Zrotation Xrotation Yrotation
			End Site
			{
				OFFSET 0.00 0.1379 0.00
			}
		}
		JOINT RightShoulder
		{
			OFFSET 0.0119 0.2289 0.1181
			CHANNELS 3 Zrotation Xrotation Yrotation
			JOINT RightElbow
			{
				OFFSET 0.00 -0.1475 0.00
				CHANNELS 2 Zrotation Yrotation
				JOINT RightWrist
				{
					OFFSET 0.00 -0.1605 0.00
					CHANNELS 2 Zrotation Xrotation
					End Site
					{
						OFFSET 0.0040 -0.1068 0.0006
					}
				}
			}
		}
		JOINT LeftShoulder
		{
			OFFSET 0.0119 0.2289 -0.1181
			CHANNELS 3 Zrotation Xrotation Yrotation
			JOINT LeftElbow
			{
				OFFSET 0.00 -0.1475 0.00
				CHANNELS 2 Zrotation Yrotation
				JOINT LeftWrist
				{
					OFFSET 0.00 -0.1605 0.00
					CHANNELS 2 Zrotation Xrotation
					End Site
					{
						OFFSET 0.0040 -0.1068 -0.0006
					}
				}
			}
		}
	}
	JOINT RightHip
	{
		OFFSET 0.0316 -0.0424 0.0458
		CHANNELS 3 Zrotation Xrotation Yrotation
		JOINT RightKnee
		{
			OFFSET 0.00 -0.2438 0.00
			CHANNELS 1 Zrotation
			JOINT RightAnkle
			{
				OFFSET 0.00 -0.2449 0.00
				CHANNELS 3 Zrotation Xrotation Yrotation
				End Site
				{
					OFFSET 0.1237 -0.0542 0.0051
				}
			}
		}
	}
	JOINT LeftHip
	{
		OFFSET 0.0316 -0.0424 -0.0458
		CHANNELS 3 Zrotation Xrotation Yrotation
		JOINT LeftKnee
		{
			OFFSET 0.00 -0.2438 0.00
			CHANNELS 1 Zrotation
			JOINT LeftAnkle
			{
				OFFSET 0.00 -0.2449 0.00
				CHANNELS 3 Zrotation Xrotation Yrotation
				End Site
				{
					OFFSET 0.1237 -0.0542 -0.0051
				}
			}
		}
	}
}
MOTION
Frames: 31
Frame Time: 0.02
-0.00028 -7e-05 0.0003 21.21224 -28.95037 -7.05951 48.95663 2.89939 -0.87829 -14.89547 -1.43404 -0.14398 28.5501 -102.72522 64.17045 9.36192 87.65097 6.13327 -1.20202 4.12187 109.92675 -60.12293 9.21904 -82.49333 3.85691 2.60351 44.60262 -3.71046 -7.65425 -21.63966 -7.19359 -3.86959 -2.7238 48.23969 9.16657 1.3594 -26.96267 -7.14703 3.39313 2.44451
-0.00021 -5e-05 0.00026 21.21489 -28.95835 -7.0549 48.97228 2.89737 -0.87839 -14.91247 -1.44351 -0.14432 28.57704 -102.70251 64.17052 9.35782 87.64766 6.13956 -1.20513 4.08297 109.85511 -60.06955 9.21921 -82.50046 3.8525 2.60191 44.60261 -3.68468 -7.49151 -21.63353 -7.20516 -3.89443 -2.7352 48.23854 9.14826 1.30587 -26.96007 -7.14807 3.4001 2.44767
-0.00015 -4e-05 0.00021 21.21753 -28.9663 -7.05031 48.98789 2.89535 -0.8785 -14.92942 -1.45293 -0.14466 28.60387 -102.67985 64.1706 9.35373 87.64436 6.1458 -1.20822 4.04422 109.7836 -60.01606 9.21939 -82.50758 3.84808 2.60026 44.60259 -3.65896 -7.32918 -21.62743 -7.21668 -3.9192 -2.74656 48.23737 9.13001 1.25252 -26.95748 -7.1491 3.40706 2.45083
-8e-05 -3e-05 0.00017 21.22017 -28.97425 -7.04572 49.0035 2.89333 -0.8786 -14.94637 -1.46237 -0.145 28.63071 -102.6572 64.17067 9.34963 87.64105 6.15206 -1.21132 4.00545 109.71217 -59.96279 9.21956 -82.51468 3.84369 2.59866 44.60258 -3.63326 -7.16692 -21.62132 -7.22821 -3.94397 -2.75793 48.23622 9.11175 1.19916 -26.95489 -7.15014 3.41401 2.45399
-2e-05 -1e-05 0.00012 21.22282 -28.98224 -7.04112 49.01915 2.8913 -0.87871 -14.96337 -1.47185 -0.14533 28.65769 -102.63451 64.17074 9.34551 87.63774 6.1584 -1.21443 3.96651 109.64066 -59.90975 9.21971 -82.5218 3.8393 2.59713 44.6026 -3.6075 -7.0043 -21.61518 -7.23977 -3.96881 -2.76933 48.2351 9.09345 1.14561 -26.9523 -7.15117 3.42097 2.45715
4e-05 -0 8e-05 21.22544 -28.9901 -7.03655 49.03466 2.8893 -0.87881 -14.98021 -1.48116 -0.14567 28.68422 -102.61193 64.17081 9.34149 87.63445 6.16444 -1.21747 3.92816 109.56915 -59.85535 9.21997 -82.52893 3.83483 2.59521 44.60251 -3.58189 -6.84257 -21.60914 -7.25123 -3.99344 -2.78064 48.23384 9.0753 1.09269 -26.94973 -7.1522 3.4279 2.46031
0.00011 1e-05 3e-05 21.22812 -28.99821 -7.03192 49.05043 2.88725 -0.87892 -14.99737 -1.49081 -0.14601 28.71159 -102.58914 64.17089 9.33729 87.63111 6.17105 -1.22066 3.88867 109.49771 -59.80367 9.22 -82.53601 3.83053 2.59408 44.60262 -3.556 -6.67924 -21.60292 -7.26288 -4.01846 -2.79211 48.23285 9.05685 1.03855 -26.94711 -7.15324 3.43489 2.46348
0.00017 3e-05 -1e-05 21.23075 -29.0061 -7.02734 49.06597 2.88524 -0.87903 -15.01422 -1.50015 -0.14635 28.73824 -102.56654 64.17096 9.33324 87.62782 6.17716 -1.22371 3.85022 109.42622 -59.74964 9.22024 -82.54315 3.82608 2.59225 44.60255 -3.53037 -6.51738 -21.59686 -7.27436 -4.04312 -2.80343 48.23162 9.03869 0.98556 -26.94453 -7.15427 3.44183 2.46663
0.00023 4e-05 -6e-05 21.2333 -29.01367 -7.02282 49.08121 2.88331 -0.8791 -15.03073 -1.50908 -0.14668 28.76379 -102.54418 64.17103 9.32943 87.62461 6.18255 -1.2266 3.8131 109.35454 -59.69202 9.22075 -82.55031 3.82142 2.58942 44.60224 -3.50506 -6.35725 -21.59102 -7.2856 -4.06733 -2.81457 48.23005 9.02084 0.93388 -26.94202 -7.15528 3.44871 2.46979
0.0003 5e-05 -0.0001 21.23625 -29.02294 -7.01795 49.09812 2.881 -0.87929 -15.04932 -1.52029 -0.14703 28.795 -102.52048 64.17111 9.32437 87.62097 6.19177 -1.23044 3.76852 109.28356 -59.65291 9.21976 -82.55719 3.8179 2.59191 44.60325 -3.4779 -6.18692 -21.58397 -7.29814 -4.09414 -2.82675 48.2303 9.00106 0.87435 -26.93916 -7.1564 3.45592 2.47297
0.00036 7e-05 -0.00015 21.23839 -29.02869 -7.01385 49.11154 2.87944 -0.87927 -15.06343 -1.52674 -0.14734 28.81471 -102.49959 64.17116 9.32186 87.61824 6.19312 -1.23227 3.73952 109.21138 -59.57612 9.22187 -82.56476 3.81199 2.58345 44.60152 -3.45464 -6.03832 -21.57944 -7.30796 -4.11546 -2.83675 48.22681 8.98545 0.83159 -26.93703 -7.15728 3.46244 2.47609
0.00041 8e-05 -0.00019 21.238 -29.02408 -7.0117 49.11496 2.88029 -0.87832 -15.06608 -1.51961 -0.14751 28.79879 -102.48645 64.17111 9.32722 87.61788 6.17067 -1.22845 3.75518 109.13363 -59.38327 9.23305 -82.57342 3.79923 2.54233 44.59172 -3.44217 -5.9482 -21.58223 -7.31019 -4.12143 -2.84069 48.21207 8.9806 0.83321 -26.93695 -7.15748 3.46712 2.47909
0.00045 9e-05 -0.00023 21.23684 -29.01604 -7.01036 49.11496 2.88182 -0.87721 -15.06409 -1.50782 -0.14763 28.77206 -102.47611 64.17103 9.33497 87.61845 6.14068 -1.22263 3.78621 109.05506 -59.15478 9.24723 -82.58289 3.78408 2.49064 44.57925 -3.43359 -5.88014 -21.58749 -7.30972 -4.12192 -2.84245 48.19374 8.98003 0.85173 -26.93759 -7.15744 3.4711 2.48201
0.0005 0.0001 -0.00028 21.23626 -29.01003 -7.00878 49.11681 2.88277 -0.87644 -15.0637 -1.49849 -0.14778 28.75294 -102.46446 64.17096 9.34106 87.61865 6.11562 -1.21783 3.80891 108.97839 -58.951 9.25965 -82.59255 3.77026 2.44555 44.56834 -3.42316 -5.80274 -21.59137 -7.31059 -4.12508 -2.84527 48.17769 8.97803 0.86386 -26.93788 -7.15751 3.47533 2.48491
0.00054 0.00011 -0.00032 21.23478 -29.00209 -7.00665 49.11741 2.88485 -0.87461 -15.06545 -1.48768 -0.14789 28.72247 -102.45301 64.17088 9.34956 87.61862 6.08436 -1.21261 3.83709 108.89538 -58.71176 9.27371 -82.59998 3.75554 2.39309 44.55595 -3.41308 -5.72247 -21.59636 -7.31099 -4.12747 -2.8478 48.15894 8.97408 0.87154 -26.93829 -7.15754 3.47979 2.48806
0.00059 0.00012 -0.00036 21.2349 -28.9973 -7.00586 49.11978 2.88475 -0.87486 -15.06166 -1.47891 -0.14808 28.71301 -102.44177 64.17083 9.35362 87.61929 6.06403 -1.20772 3.85779 108.82523 -58.53724 9.28509 -82.61211 3.74198 2.35318 44.54601 -3.4032 -5.65344 -21.59962 -7.3117 -4.13016 -2.8504 48.14492 8.97492 0.89131 -26.9386 -7.15761 3.48366 2.49068
0.00063 0.00013 -0.00038 21.24036 -29.0024 -7.00878 49.12803 2.87821 -0.88163 -15.04341 -1.47638 -0.14851 28.76494 -102.43073 64.17088 9.3448 87.62159 6.07736 -1.20473 3.85145 108.79219 -58.55578 9.28826 -82.63807 3.73339 2.35298 44.54357 -3.39283 -5.60962 -21.59738 -7.31405 -4.13526 -2.85382 48.14525 8.99047 0.95081 -26.93847 -7.15778 3.48579 2.49159
0.00067 0.00014 -0.00039 21.24734 -29.01073 -7.013 49.13816 2.86949 -0.89037 -15.01981 -1.47614 -0.14903 28.83832 -102.41975 64.17096 9.33144 87.62456 6.10166 -1.20207 3.83753 108.77185 -58.63941 9.28863 -82.66855 3.72586 2.36531 44.54367 -3.38255 -5.57645 -21.59334 -7.31678 -4.14082 -2.85737 48.15038 9.01028 1.02017 -26.93821 -7.15801 3.4874 2.49202
0.00071 0.00014 -0.00041 21.25312 -29.01736 -7.01651 49.14733 2.86193 -0.89772 -14.99887 -1.47524 -0.14951 28.90132 -102.40854 64.17103 9.32014 87.62726 6.1198 -1.19892 3.82879 108.74478 -58.68982 9.29031 -82.69627 3.71707 2.37027 44.54257 -3.37232 -5.53867 -21.5902 -7.31927 -4.14603 -2.86078 48.15301 9.02642 1.07787 -26.93798 -7.15826 3.48943 2.49284
0.00076 0.00015 -0.00042 21.26094 -29.02484 -7.02057 49.15681 2.85369 -0.90711 -14.97677 -1.4727 -0.15 28.96633 -102.39827 64.17111 9.30884 87.62987 6.1425 -1.19708 3.81327 108.72173 -58.75523 9.29194 -82.72699 3.71142 2.38192 44.54159 -3.36185 -5.50064 -21.58682 -7.32197 -4.15163 -2.86444 48.15682 9.04984 1.16555 -26.93789 -7.1583 3.49066 2.49293
0.00079 0.00016 -0.00043 21.26496 -29.03139 -7.02378 49.16614 2.84633 -0.91278 -14.95589 -1.47402 -0.15047 29.03274 -102.38605 64.17117 9.29654 87.63278 6.15856 -1.19269 3.80984 108.6933 -58.80421 9.29299 -82.75254 3.6996 2.38278 44.54101 -3.35184 -5.46542 -21.58347 -7.32434 -4.15662 -2.86766 48.15942 9.0593 1.19403 -26.93747 -7.15879 3.49344 2.4944
0.00083 0.00017 -0.00043 21.25755 -29.03445 -7.02422 49.17468 2.84207 -0.90726 -14.93966 -1.48662 -0.15085 29.095 -102.36816 64.17112 9.28189 87.63661 6.15234 -1.18054 3.84192 108.6472 -58.80075 9.29283 -82.76249 3.66967 2.35036 44.54089 -3.34298 -5.43502 -21.58062 -7.32567 -4.1598 -2.86965 48.15715 9.02682 1.04683 -26.93608 -7.16057 3.50087 2.50014
0.00085 0.00017 -0.00042 21.24637 -29.03651 -7.02379 49.18301 2.83875 -0.89801 -14.92485 -1.50281 -0.15121 29.15852 -102.34832 64.17103 9.26653 87.64064 6.13928 -1.16596 3.8864 108.59512 -58.77647 9.29226 -82.76713 3.63367 2.30674 44.54112 -3.33458 -5.40707 -21.57784 -7.32666 -4.16238 -2.87123 48.15359 8.98054 0.84137 -26.93437 -7.16279 3.50985 2.50724
0.00088 0.00017 -0.00042 21.23732 -29.03912 -7.02384 49.19143 2.83488 -0.89075 -14.90945 -1.51662 -0.15158 29.22337 -102.32955 64.17098 9.2519 87.64439 6.13026 -1.15292 3.92486 108.54567 -58.75681 9.29203 -82.77433 3.601 2.26861 44.54123 -3.32599 -5.37812 -21.57503 -7.32782 -4.16526 -2.873 48.15085 8.94212 0.66901 -26.93285 -7.16477 3.51797 2.51352
0.00091 0.00018 -0.00042 21.2266 -29.04143 -7.02357 49.19996 2.83141 -0.88234 -14.89366 -1.53373 -0.15193 29.2809 -102.31008 64.17089 9.23527 87.64899 6.11783 -1.13802 3.96431 108.49728 -58.76215 9.29093 -82.781 3.56589 2.22936 44.54124 -3.3173 -5.34902 -21.57217 -7.32891 -4.16803 -2.87473 48.14727 8.89722 0.46932 -26.93113 -7.16694 3.52673 2.52066
0.00094 0.00018 -0.00041 21.2184 -29.04409 -7.02374 49.20813 2.82741 -0.87537 -14.87903 -1.54472 -0.15231 29.35371 -102.29153 64.17084 9.22285 87.65183 6.11056 -1.12648 4.00521 108.44477 -58.70672 9.29173 -82.78752 3.53445 2.18946 44.54153 -3.30896 -5.32074 -21.56945 -7.33007 -4.1709 -2.87646 48.14508 8.86238 0.31221 -26.92977 -7.16881 3.53452 2.52633
0.00096 0.00019 -0.00041 21.21831 -29.04808 -7.02539 49.21588 2.82139 -0.87358 -14.86774 -1.53833 -0.15277 29.46882 -102.27669 64.17093 9.2215 87.64982 6.12031 -1.12431 4.04352 108.38501 -58.51144 9.2967 -82.79452 3.51438 2.15189 44.54232 -3.30128 -5.29355 -21.56696 -7.33147 -4.17418 -2.87826 48.14706 8.85955 0.28993 -26.92951 -7.16979 3.53934 2.52756
0.00097 0.00019 -0.00041 21.22082 -29.05243 -7.02751 49.22317 2.81488 -0.87329 -14.85749 -1.52559 -0.15325 29.59933 -102.26283 64.17091 9.22483 87.64597 6.13495 -1.12579 4.08393 108.32068 -58.24991 9.30396 -82.80163 3.49832 2.11376 44.54339 -3.29399 -5.26721 -21.56463 -7.33295 -4.1776 -2.88009 48.15046 8.86711 0.31174 -26.92963 -7.17045 3.54312 2.5273
0.00099 0.0002 -0.0004 21.22196 -29.05652 -7.02941 49.23033 2.80881 -0.87211 -14.84645 -1.51549 -0.15371 29.72206 -102.24797 64.17111 9.22618 87.64297 6.14695 -1.12582 4.12525 108.25673 -58.00492 9.31083 -82.80895 3.48046 2.07483 44.54442 -3.28663 -5.24073 -21.56233 -7.33443 -4.18099 -2.88194 48.15315 8.86939 0.3115 -26.92955 -7.17124 3.54729 2.52775
0.001 0.0002 -0.0004 21.22376 -29.06097 -7.03135 49.23891 2.80181 -0.8717 -14.83678 -1.5065 -0.15422 29.84707 -102.23498 64.17119 9.22583 87.64006 6.16165 -1.12451 4.15756 108.20007 -57.82152 9.31444 -82.81495 3.46195 2.03977 44.54508 -3.27878 -5.21307 -21.55962 -7.33575 -4.18423 -2.88363 48.15605 8.8737 0.31833 -26.92956 -7.17208 3.55181 2.52806
0.00102 0.00021 -0.0004 21.22484 -29.0648 -7.03328 49.2444 2.79666 -0.87009 -14.82449 -1.49368 -0.15463 29.97232 -102.21884 64.17074 9.23147 87.63636 6.1705 -1.12734 4.21095 108.1268 -57.48809 9.326 -82.82382 3.44627 1.99693 44.54662 -3.27211 -5.18832 -21.5578 -7.33741 -4.18779 -2.88565 48.15892 8.87624 0.32092 -26.92949 -7.17276 3.5554 2.52833
